<svg width="50" height="26" viewBox="0 0 30 26" fill="none" xmlns="http://www.w3.org/2000/svg"><path d="M20.137 26c2.761 0 5.047-2.258 4.536-4.971a26.67 26.67 0 0 0-1.45-4.979 26.078 26.078 0 0 0-5.448-8.435A25.1 25.1 0 0 0 9.618 1.98 24.523 24.523 0 0 0 4.965.512C2.262-.05 0 2.24 0 5v16a5 5 0 0 0 5 5h15.137Z" fill="#615DFF"/><path d="M13.701 26c-2.761 0-5.047-2.258-4.536-4.971.32-1.702.805-3.37 1.45-4.979a26.078 26.078 0 0 1 5.449-8.435 25.1 25.1 0 0 1 8.155-5.636A24.524 24.524 0 0 1 28.873.512C31.577-.05 33.838 2.24 33.838 5v16a5 5 0 0 1-5 5H13.701Z" fill="#3DD9EB" style="mix-blend-mode:multiply"/></svg>